<?xml version="1.0" encoding="iso-8859-1"?>
<!-- Uploaded to: SVG Repo, www.svgrepo.com, Generator: SVG Repo Mixer Tools -->
<svg height="800px" width="800px" version="1.1" id="Capa_1" xmlns="http://www.w3.org/2000/svg" xmlns:xlink="http://www.w3.org/1999/xlink" 
	 viewBox="0 0 305.601 305.601" xml:space="preserve">
<g>
	<g>
		<g>
			<path style="fill:#010002;" d="M305.601,211.021l-9.213-1.534l-2.443,14.597C248.954,188.501,148.604,51.347,147.529,49.882
				l-3.41-4.621l-2.951,4.895C114.692,94.228,40.292,209.536,11.138,219.306l-2.57-5.901L0,217.147l17.147,39.471l-0.596,0.85h0.977
				l1.251,2.872l6.624-2.872h266.139l-0.967-1.212l7.259,1.212l4.445-26.487l0.459-0.85l-0.293-0.205L305.601,211.021z
				 M192.189,249.007h-85.401c-2.589-5.803-4.143-12.135-4.143-18.905c0-25.852,20.967-46.848,46.828-46.848
				c25.891,0,46.848,20.977,46.848,46.848C196.322,236.853,194.778,243.214,192.189,249.007z M288.865,254.137L145.702,73.662
				L23.448,247.649l-9.291-21.387C49.222,213.004,128.155,86.109,144.716,58.948c18.71,25.393,106.983,143.739,147.774,173.596
				L288.865,254.137z"/>
		</g>
	</g>
</g>
</svg>